<svg xmlns="http://www.w3.org/2000/svg" viewBox="0 0 1440 3600" width="1440" height="3600">
  <defs>
    <linearGradient id="sc-hero" x1="0" y1="0" x2="0" y2="1">
      <stop offset="0%" stop-color="#f5ede0"/>
      <stop offset="100%" stop-color="#eedfc8"/>
    </linearGradient>
  </defs>

  <!-- Nav -->
  <rect width="1440" height="72" fill="#fff8f0"/>
  <text x="52" y="45" font-family="Georgia,serif" font-size="22" font-weight="700" fill="#3a2a14" letter-spacing="3">SICILIA CLASSICA</text>
  <text x="700" y="44" font-family="Arial,sans-serif" font-size="14" fill="#7a6040">Tour</text>
  <text x="800" y="44" font-family="Arial,sans-serif" font-size="14" fill="#7a6040">Esperienze</text>
  <text x="920" y="44" font-family="Arial,sans-serif" font-size="14" fill="#7a6040">Contatti</text>
  <rect x="1280" y="22" width="120" height="36" rx="4" fill="#c8832a"/>
  <text x="1340" y="45" font-family="Arial,sans-serif" font-size="13" fill="#fff" text-anchor="middle">Prenota</text>
  <line x1="0" y1="72" x2="1440" y2="72" stroke="#e8d8c0" stroke-width="1"/>

  <!-- Hero -->
  <rect y="72" width="1440" height="620" fill="url(#sc-hero)"/>
  <text x="48" y="280" font-family="Georgia,serif" font-size="72" font-weight="700" fill="#3a2a14">Scopri la</text>
  <text x="48" y="370" font-family="Georgia,serif" font-size="72" font-weight="700" fill="#c8832a">Sicilia autentica</text>
  <text x="48" y="440" font-family="Arial,sans-serif" font-size="20" fill="#7a6040">Tour esclusivi, esperienze locali e itinerari su misura.</text>
  <rect x="48" y="520" width="200" height="52" rx="4" fill="#c8832a"/>
  <text x="148" y="552" font-family="Arial,sans-serif" font-size="16" fill="#fff" text-anchor="middle">Esplora i tour</text>
  <rect x="780" y="100" width="620" height="560" rx="8" fill="#d4b880"/>
  <text x="1090" y="392" font-family="Georgia,serif" font-size="32" fill="#7a5020" text-anchor="middle" opacity="0.7">Sicilia</text>

  <!-- Tour cards -->
  <rect y="692" width="1440" height="700" fill="#fff8f0"/>
  <text x="720" y="780" font-family="Arial,sans-serif" font-size="13" fill="#c8832a" text-anchor="middle" letter-spacing="4">I NOSTRI TOUR</text>
  <text x="720" y="840" font-family="Georgia,serif" font-size="48" font-weight="700" fill="#3a2a14" text-anchor="middle">Itinerari scelti per te</text>
  <rect x="48" y="900" width="420" height="420" rx="8" fill="#eedfc8"/>
  <rect x="48" y="900" width="420" height="220" rx="8" fill="#d4b880"/>
  <text x="258" y="1020" font-family="Georgia,serif" font-size="20" fill="#fff" text-anchor="middle">Valle dei Templi</text>
  <text x="68" y="1170" font-family="Georgia,serif" font-size="22" fill="#3a2a14">Tour Agrigento</text>
  <text x="68" y="1200" font-family="Arial,sans-serif" font-size="14" fill="#7a6040">3 giorni · da €490 p.p.</text>
  <rect x="510" y="900" width="420" height="420" rx="8" fill="#eedfc8"/>
  <rect x="510" y="900" width="420" height="220" rx="8" fill="#c8a870"/>
  <text x="720" y="1020" font-family="Georgia,serif" font-size="20" fill="#fff" text-anchor="middle">Etna e dintorni</text>
  <text x="530" y="1170" font-family="Georgia,serif" font-size="22" fill="#3a2a14">Etna Experience</text>
  <text x="530" y="1200" font-family="Arial,sans-serif" font-size="14" fill="#7a6040">2 giorni · da €320 p.p.</text>
  <rect x="972" y="900" width="420" height="420" rx="8" fill="#eedfc8"/>
  <rect x="972" y="900" width="420" height="220" rx="8" fill="#b89060"/>
  <text x="1182" y="1020" font-family="Georgia,serif" font-size="20" fill="#fff" text-anchor="middle">Palermo storica</text>
  <text x="992" y="1170" font-family="Georgia,serif" font-size="22" fill="#3a2a14">Palermo Barocca</text>
  <text x="992" y="1200" font-family="Arial,sans-serif" font-size="14" fill="#7a6040">4 giorni · da €640 p.p.</text>

  <!-- Stats strip -->
  <rect y="1392" width="1440" height="160" fill="#3a2a14"/>
  <text x="240" y="1460" font-family="Georgia,serif" font-size="48" font-weight="700" fill="#c8832a" text-anchor="middle">1200+</text>
  <text x="240" y="1500" font-family="Arial,sans-serif" font-size="16" fill="#eedfc8" text-anchor="middle">Viaggiatori felici</text>
  <text x="720" y="1460" font-family="Georgia,serif" font-size="48" font-weight="700" fill="#c8832a" text-anchor="middle">48</text>
  <text x="720" y="1500" font-family="Arial,sans-serif" font-size="16" fill="#eedfc8" text-anchor="middle">Itinerari disponibili</text>
  <text x="1200" y="1460" font-family="Georgia,serif" font-size="48" font-weight="700" fill="#c8832a" text-anchor="middle">10+</text>
  <text x="1200" y="1500" font-family="Arial,sans-serif" font-size="16" fill="#eedfc8" text-anchor="middle">Anni di esperienza</text>

  <!-- Experiences section -->
  <rect y="1552" width="1440" height="600" fill="#f5ede0"/>
  <text x="720" y="1640" font-family="Arial,sans-serif" font-size="13" fill="#c8832a" text-anchor="middle" letter-spacing="4">ESPERIENZE LOCALI</text>
  <text x="720" y="1700" font-family="Georgia,serif" font-size="48" font-weight="700" fill="#3a2a14" text-anchor="middle">Autenticamente siciliano</text>
  <rect x="48" y="1760" width="620" height="320" rx="8" fill="#e8d0a8"/>
  <text x="358" y="1930" font-family="Georgia,serif" font-size="22" fill="#7a5020" text-anchor="middle">Cooking class · Degustazioni</text>
  <rect x="772" y="1760" width="620" height="320" rx="8" fill="#d4b880"/>
  <text x="1082" y="1930" font-family="Arial,sans-serif" font-size="20" fill="#fff" text-anchor="middle">Mare · Montagna · Borghi</text>

  <!-- About -->
  <rect y="2152" width="1440" height="520" fill="#fff8f0"/>
  <text x="720" y="2240" font-family="Arial,sans-serif" font-size="13" fill="#c8832a" text-anchor="middle" letter-spacing="4">CHI SIAMO</text>
  <text x="720" y="2300" font-family="Georgia,serif" font-size="48" font-weight="700" fill="#3a2a14" text-anchor="middle">La nostra storia</text>
  <rect x="48" y="2350" width="620" height="260" rx="8" fill="#eedfc8"/>
  <text x="120" y="2440" font-family="Arial,sans-serif" font-size="18" fill="#3a2a14">Nata a Catania, Sicilia Classica nasce</text>
  <text x="120" y="2470" font-family="Arial,sans-serif" font-size="18" fill="#3a2a14">dalla passione per la nostra terra.</text>
  <rect x="772" y="2350" width="620" height="260" rx="8" fill="#d4b880"/>
  <text x="1082" y="2488" font-family="Georgia,serif" font-size="22" fill="#fff" text-anchor="middle">siciliaclassica.it</text>

  <!-- Testimonials -->
  <rect y="2672" width="1440" height="460" fill="#f5ede0"/>
  <text x="720" y="2760" font-family="Arial,sans-serif" font-size="13" fill="#c8832a" text-anchor="middle" letter-spacing="4">RECENSIONI</text>
  <text x="720" y="2820" font-family="Georgia,serif" font-size="40" font-weight="700" fill="#3a2a14" text-anchor="middle">Cosa dicono di noi</text>
  <rect x="80" y="2870" width="580" height="200" rx="8" fill="#fff8f0" stroke="#e8d0a8" stroke-width="1"/>
  <text x="160" y="2940" font-family="Georgia,serif" font-size="18" fill="#3a2a14">"Un'esperienza indimenticabile."</text>
  <text x="160" y="3000" font-family="Arial,sans-serif" font-size="14" fill="#c8832a">— Marco T., Milano</text>
  <rect x="780" y="2870" width="580" height="200" rx="8" fill="#fff8f0" stroke="#e8d0a8" stroke-width="1"/>
  <text x="860" y="2940" font-family="Georgia,serif" font-size="18" fill="#3a2a14">"Guide preparatissime."</text>
  <text x="860" y="3000" font-family="Arial,sans-serif" font-size="14" fill="#c8832a">— Giulia R., Roma</text>

  <!-- Footer CTA -->
  <rect y="3132" width="1440" height="468" fill="#3a2a14"/>
  <text x="720" y="3280" font-family="Georgia,serif" font-size="52" font-weight="700" fill="#fff8f0" text-anchor="middle">Pronti a partire?</text>
  <text x="720" y="3340" font-family="Arial,sans-serif" font-size="20" fill="#eedfc8" text-anchor="middle">Progettiamo insieme il tuo viaggio.</text>
  <rect x="560" y="3390" width="320" height="56" rx="4" fill="#c8832a"/>
  <text x="720" y="3424" font-family="Arial,sans-serif" font-size="18" fill="#fff" text-anchor="middle">Scrivici ora</text>
  <text x="720" y="3540" font-family="Arial,sans-serif" font-size="13" fill="#7a6040" text-anchor="middle">© Sicilia Classica · siciliaclassica.it</text>
</svg>
